<?xml version="1.0" standalone="no"?>
<!DOCTYPE svg PUBLIC "-//W3C//DTD SVG 20010904//EN"
 "http://www.w3.org/TR/2001/REC-SVG-20010904/DTD/svg10.dtd">
<svg version="1.0" xmlns="http://www.w3.org/2000/svg"
 width="500.000000pt" height="500.000000pt" viewBox="0 0 500.000000 500.000000"
 preserveAspectRatio="xMidYMid meet">

<g transform="translate(0.000000,500.000000) scale(0.100000,-0.100000)"
fill="#000000" stroke="none">
<path d="M955 4015 c-5 -2 -22 -6 -37 -9 -39 -9 -88 -54 -109 -101 -18 -38
-19 -100 -19 -1333 0 -1144 -2 -1297 -15 -1330 -67 -159 -286 -165 -366 -10
-18 36 -19 73 -19 1001 0 960 0 964 -21 991 -25 32 -68 35 -95 5 -18 -20 -19
-53 -22 -953 -2 -613 1 -954 8 -999 24 -157 125 -260 280 -287 46 -8 637 -10
2065 -8 l2000 3 45 27 c28 16 55 43 70 70 l25 43 0 1375 0 1375 -27 45 c-16
28 -43 55 -70 70 l-43 25 -1820 2 c-1001 1 -1824 0 -1830 -2z m1476 -504 c18
-22 19 -47 19 -618 0 -594 -2 -624 -34 -645 -6 -4 -260 -8 -565 -8 -502 0
-556 2 -573 17 -17 15 -18 48 -18 628 0 570 1 613 18 627 9 9 24 18 32 21 8 3
260 5 558 4 l544 -2 19 -24z m1828 5 c29 -26 28 -80 -1 -100 -20 -14 -107 -16
-743 -16 -800 0 -765 -3 -765 64 0 32 18 57 50 69 8 3 335 5 726 4 685 -2 713
-3 733 -21z m1 -386 c12 -12 20 -33 20 -54 0 -69 38 -66 -765 -66 -803 0 -765
-3 -765 66 0 21 8 42 20 54 20 20 33 20 745 20 712 0 725 0 745 -20z m-2 -386
c22 -15 30 -66 14 -90 -22 -33 -49 -34 -757 -34 -795 0 -764 -3 -765 77 0 66
-34 63 765 63 636 0 723 -2 743 -16z m4 -391 c22 -20 23 -70 1 -95 -15 -17
-52 -18 -746 -18 -666 0 -732 1 -749 17 -22 20 -23 70 -1 95 15 17 52 18 746
18 666 0 732 -1 749 -17z m-8 -384 c19 -15 26 -30 26 -54 0 -70 118 -65 -1522
-65 -1465 0 -1478 0 -1498 20 -36 36 -21 94 30 113 8 3 673 6 1476 6 l1461 1
27 -21z m6 -389 c12 -12 20 -33 20 -54 0 -71 119 -66 -1519 -66 l-1475 0 -23
22 c-22 21 -30 62 -15 84 22 33 37 33 1520 34 1459 0 1472 0 1492 -20z"/>
<path d="M546 3514 c-9 -8 -18 -25 -21 -37 -3 -12 -4 -502 -3 -1089 3 -990 4
-1069 20 -1084 22 -22 74 -22 96 0 16 15 17 94 20 1084 1 587 0 1077 -3 1089
-8 32 -33 53 -65 53 -16 0 -36 -7 -44 -16z"/>
</g>
</svg>
